<svg width="140" height="92" viewBox="0 0 140 92" fill="none" xmlns="http://www.w3.org/2000/svg">
<path d="M9.62477 1.30169e-09H82.1485C87.4632 1.30169e-09 91.7773 4.34084 91.7773 9.65559V16.8038L82.1485 20.5161L82.1291 12.8539C82.1247 11.086 80.6906 9.65498 78.9228 9.65423L12.8339 9.62613C11.0618 9.62538 9.62477 11.0618 9.62477 12.8339V78.478C9.62477 80.2496 11.0609 81.6857 12.8325 81.6857H79.3935C81.1651 81.6857 82.6012 80.2496 82.6012 78.478V73.0084L91.808 73.0431L91.808 82.1382C91.8081 87.2225 87.6855 91.3436 82.6012 91.3417L9.62477 91.3141C4.31145 91.3121 0 86.999 0 81.6857V9.62477C0 4.30996 4.30996 -8.64887e-05 9.62477 1.30169e-09Z" fill="#7F22FE"/>
<path d="M91.7773 66.8301H82.5664V62.7559H82.4482C80.6178 65.8854 77.4875 67.7754 73.5312 67.7754C65.7962 67.7752 60.3047 61.8109 60.3047 51.7139C60.3048 42.2665 65.7372 35.7121 73.5312 35.7119C77.7827 35.7119 80.2042 37.4834 81.9756 40.0225H82.1523V28.2998L91.7773 24.6113V66.8301ZM60.7842 66.8301H49.8018L47.3213 59.2129H32.5596L30.1387 66.8301H19.6279L34.8037 24.6113H45.5508L60.7842 66.8301ZM126.858 33.4092H107.5V41.9717H123.434V50.415H107.5V66.8301H97.0488V24.6113H126.858V33.4092ZM140 66.8301H130.375V36.5977H140V66.8301ZM76.1299 42.9746C72.2918 42.9746 70.0479 46.5177 70.0479 51.5957C70.0479 56.851 72.2917 60.1582 76.0117 60.1582C80.0269 60.1582 82.3887 56.6739 82.3887 51.7139C82.3886 46.6359 80.3221 42.9747 76.1299 42.9746ZM39.9404 35.5352C39.9311 35.5701 38.9338 39.3244 38.2285 41.499L34.9805 51.7139H44.9004L41.7119 41.499C41.0055 39.3208 40.0642 35.5576 40.0586 35.5352H39.9404ZM140 32.4053H130.375V28.2998L140 24.6113V32.4053Z" fill="#121601"/>
</svg>
