<svg width="32" height="32" viewBox="0 0 32 32" fill="none" xmlns="http://www.w3.org/2000/svg">
<g opacity="0.5">
<rect x="1" y="1" width="30" height="30" rx="15" stroke="#18181B" stroke-width="2"/>
<path d="M24.2965 15.7041V16.2967C24.2965 16.624 24.0313 16.8893 23.704 16.8893H16.8892V23.7041C16.8892 24.0313 16.6238 24.2967 16.2965 24.2967H15.704C15.3767 24.2967 15.1114 24.0313 15.1114 23.7041V16.8893H8.29658C7.9693 16.8893 7.70398 16.624 7.70398 16.2967V15.7041C7.70398 15.3768 7.9693 15.1115 8.29658 15.1115H15.1114V8.29669C15.1114 7.96941 15.3767 7.7041 15.704 7.7041H16.2965C16.6238 7.7041 16.8892 7.96941 16.8892 8.29669V15.1115H23.704C24.0313 15.1115 24.2965 15.3768 24.2965 15.7041Z" fill="#18181B"/>
</g>
</svg>
