<svg width="99" height="64" viewBox="0 0 99 64" fill="none" xmlns="http://www.w3.org/2000/svg">
<path d="M6.74374 9.12041e-10H57.5586C61.2825 9.12041e-10 64.3052 3.04148 64.3052 6.76534V11.7738L57.5586 14.3749L57.5416 7.6617C57.5404 7.16623 57.1385 6.76517 56.643 6.76496L7.64315 6.74413C7.14648 6.74392 6.74374 7.14648 6.74374 7.64315V56.3354C6.74374 56.8319 7.14625 57.2344 7.64276 57.2344H56.9768C57.4733 57.2344 57.8758 56.8319 57.8758 56.3354V51.1545L64.3267 51.1788L64.3267 57.5514C64.3268 61.1138 61.4382 64.0014 57.8758 64L6.74374 63.9807C3.02088 63.9793 0 60.9572 0 57.2344V6.74375C0 3.01984 3.01984 -6.05996e-05 6.74374 9.12041e-10Z" fill="#7F22FE"/>
<path d="M51.5211 47.4877C46.1013 47.4877 42.2536 43.309 42.2536 36.2343C42.2536 29.6146 46.0599 25.0222 51.5211 25.0222C54.5 25.0222 56.1962 26.2634 57.4374 28.0424H57.5615V19.8288L64.3053 17.2441V46.8257H57.8511V43.971H57.7684C56.4858 46.1637 54.2931 47.4877 51.5211 47.4877ZM53.2588 42.1506C56.0721 42.1506 57.727 39.7096 57.727 36.2343C57.727 32.6762 56.279 30.1111 53.3415 30.1111C50.6523 30.1111 49.0801 32.5935 49.0801 36.1515C49.0801 39.8337 50.6523 42.1506 53.2588 42.1506Z" fill="#EDE9FE"/>
<path d="M13.753 46.8257L24.3858 17.2441H31.9157L42.5899 46.8257H34.8945L33.1569 41.4886H22.8137L21.1174 46.8257H13.753ZM24.5099 36.2343H31.4606L29.2264 29.0768C28.73 27.546 28.068 24.8981 28.068 24.8981H27.9853C27.9853 24.8981 27.2819 27.546 26.7854 29.0768L24.5099 36.2343Z" fill="#EDE9FE"/>
<path d="M91.3491 46.8257V25.6428H98.0929V46.8257H91.3491ZM91.3491 22.7053V19.8288L98.0929 17.2441V22.7053H91.3491Z" fill="#EDE9FE"/>
<path d="M67.9988 46.8257V17.2441H88.8853V23.4087H75.3218V29.4077H86.4857V35.3241H75.3218V46.8257H67.9988Z" fill="#EDE9FE"/>
</svg>
